<svg xmlns="http://www.w3.org/2000/svg" width="173.945" height="174.126" viewBox="0 0 173.945 174.126">
  <g id="career-1" transform="translate(-502.647 -483.693)">
    <path id="blob" d="M49.7-41.4C61.3-25.2,65.3-4.7,62.1,16.1,58.9,36.8,48.4,57.7,31.3,66.5c-17,8.8-40.7,5.4-62.9-4.1-22.2-9.4-42.9-25-44.4-42-1.4-17,16.4-35.3,32.3-52.6C-27.8-49.4-13.9-65.6,2.6-67.7,19.1-69.7,38.2-57.7,49.7-41.4Z" transform="translate(583.982 574.402) rotate(163)" fill="#f5f8fa"/>
    <g id="career" transform="translate(525 503)">
      <path id="Path_472" data-name="Path 472" d="M232.764,259.8l-4.281,10.615-19.241-19.241H208V240h1.881a7.448,7.448,0,0,1,5.266,2.181l7.129,7.129Z" transform="translate(-155.448 -182.483)" fill="#ffbfa1"/>
      <path id="Path_473" data-name="Path 473" d="M320.69,328h14.954a2.483,2.483,0,0,1,2.305,3.4l-7.633,19.082a3.724,3.724,0,0,1-3.458,2.341H312Z" transform="translate(-243.31 -256.828)" fill="#ffc431"/>
      <path id="Path_474" data-name="Path 474" d="M53.793,240v38.483H24v-27.95A10.534,10.534,0,0,1,34.532,240Z" transform="translate(0 -182.483)" fill="#ffbfa1"/>
      <path id="Path_475" data-name="Path 475" d="M59.7,242.182A7.449,7.449,0,0,0,54.433,240h-19.9A10.534,10.534,0,0,0,24,250.532v27.95H53.793v-27.31l5.586,5.586,7.448-7.448Z" transform="translate(0 -182.483)" fill="#548aff"/>
      <path id="Path_476" data-name="Path 476" d="M120,208v8.069a5.586,5.586,0,0,0,11.172,0V208Z" transform="translate(-81.103 -155.448)" fill="#ffbfa1"/>
      <path id="Path_477" data-name="Path 477" d="M134.9,136v12.414a7.448,7.448,0,1,1-14.9,0V136Z" transform="translate(-81.103 -94.621)" fill="#ffceb6"/>
      <path id="Path_478" data-name="Path 478" d="M92.966,115.862l-.993-.745A9.931,9.931,0,0,1,88,107.172V104.69a6.207,6.207,0,0,1,6.207-6.207A4.491,4.491,0,0,1,98.224,96h3.431a8.69,8.69,0,0,1,8.69,8.69v3.724h-5.621a8.983,8.983,0,0,1-8.034-4.966l-.817,1.635a6.024,6.024,0,0,1-2.907,2.8Z" transform="translate(-54.069 -60.828)" fill="#b1712c"/>
      <ellipse id="Ellipse_160" data-name="Ellipse 160" cx="1.5" cy="2" rx="1.5" ry="2" transform="translate(44 49)" fill="#91591c"/>
      <circle id="Ellipse_161" data-name="Ellipse 161" cx="2" cy="2" r="2" transform="translate(48 49)" fill="#91591c"/>
      <rect id="Rectangle_104" data-name="Rectangle 104" width="2.483" height="5.552" rx="1.241" transform="translate(39.016 38.207) rotate(-26.565)" fill="#a36522"/>
      <path id="Path_479" data-name="Path 479" d="M216,179.724,218.483,176H216Z" transform="translate(-162.207 -128.414)" fill="#a36522"/>
      <path id="Path_480" data-name="Path 480" d="M197.1,460.966H180.966A4.965,4.965,0,0,1,176,456h23.586Z" transform="translate(-128.414 -364.965)" fill="#ffc431"/>
      <path id="Path_481" data-name="Path 481" d="M86.828,348l8.069,8.069h9.931l3.755-1.878a5.73,5.73,0,0,1,8.215,4.184l.444,2.66-3.724,3.724-3.724-3.724-7.448,3.724H93.531a8.689,8.689,0,0,1-6.145-2.546L80,354.828Z" transform="translate(-47.31 -273.724)" fill="#ffceb6"/>
      <path id="Path_482" data-name="Path 482" d="M309.9,350.486l7.633-19.082a2.483,2.483,0,0,0-2.305-3.4h-1.3L304,352.827h2.444a3.724,3.724,0,0,0,3.458-2.341Z" transform="translate(-236.552 -256.827)" fill="#ffd873"/>
      <path id="Path_483" data-name="Path 483" d="M298.759,26.483V58.759a2.482,2.482,0,0,1-2.483,2.483h-2.483v6.207l-8.69-6.207H266.483A2.482,2.482,0,0,1,264,58.759V26.483A2.482,2.482,0,0,1,266.483,24h29.793A2.482,2.482,0,0,1,298.759,26.483Z" transform="translate(-202.759 0)" fill="#91c0ff"/>
      <path id="Path_484" data-name="Path 484" d="M298.759,26.483v4.966H264V26.483A2.482,2.482,0,0,1,266.483,24h29.793A2.482,2.482,0,0,1,298.759,26.483Z" transform="translate(-202.759 0)" fill="#548aff"/>
      <circle id="Ellipse_162" data-name="Ellipse 162" cx="1" cy="1" r="1" transform="translate(65 27)" fill="#f5714f"/>
      <ellipse id="Ellipse_163" data-name="Ellipse 163" cx="2" cy="1" rx="2" ry="1" transform="translate(68 27)" fill="#ffc431"/>
      <ellipse id="Ellipse_164" data-name="Ellipse 164" cx="0.5" cy="1" rx="0.5" ry="1" transform="translate(73 27)" fill="#02c26a"/>
      <path id="Path_485" data-name="Path 485" d="M296.69,105.931h-7.448A1.241,1.241,0,0,1,288,104.69V97.241A1.241,1.241,0,0,1,289.241,96h7.448a1.241,1.241,0,0,1,1.241,1.241v7.448A1.241,1.241,0,0,1,296.69,105.931Zm-6.207-2.483h4.966V98.483h-4.966Z" transform="translate(-223.034 -60.828)" fill="#639aff"/>
      <path id="Path_486" data-name="Path 486" d="M0,0H8.778V2.483H0Z" transform="translate(69.048 39.266) rotate(-45)" fill="#ef5e3b"/>
      <g id="Group_156" data-name="Group 156" transform="translate(64.966 36.414)">
        <path id="Path_487" data-name="Path 487" d="M376,104h2.483v2.483H376Z" transform="translate(-362.345 -104)" fill="#639aff"/>
        <path id="Path_488" data-name="Path 488" d="M408,104h8.69v2.483H408Z" transform="translate(-389.379 -104)" fill="#639aff"/>
        <path id="Path_489" data-name="Path 489" d="M376,136h7.448v2.483H376Z" transform="translate(-362.345 -131.034)" fill="#639aff"/>
        <path id="Path_490" data-name="Path 490" d="M296.69,185.931h-7.448A1.241,1.241,0,0,1,288,184.69v-7.448A1.241,1.241,0,0,1,289.241,176h7.448a1.241,1.241,0,0,1,1.241,1.241v7.448A1.241,1.241,0,0,1,296.69,185.931Zm-6.207-2.483h4.966v-4.966h-4.966Z" transform="translate(-288 -164.828)" fill="#639aff"/>
      </g>
      <path id="Path_491" data-name="Path 491" d="M0,0H8.778V2.483H0Z" transform="translate(69.046 51.679) rotate(-45)" fill="#ef5e3b"/>
      <path id="Path_492" data-name="Path 492" d="M376,184h4.966v2.483H376Z" transform="translate(-297.379 -135.172)" fill="#639aff"/>
      <path id="Path_493" data-name="Path 493" d="M424,184h6.207v2.483H424Z" transform="translate(-337.931 -135.172)" fill="#639aff"/>
      <path id="Path_494" data-name="Path 494" d="M376,216h9.931v2.483H376Z" transform="translate(-297.379 -162.207)" fill="#639aff"/>
      <rect id="Rectangle_105" data-name="Rectangle 105" width="2.483" height="7.9" rx="1.241" transform="translate(33.046 69.564) rotate(-45)" fill="#4f7ff7"/>
      <rect id="Rectangle_106" data-name="Rectangle 106" width="2.483" height="9.302" rx="1.241" transform="translate(25.228 75.399) rotate(-45)" fill="#4f7ff7"/>
    </g>
  </g>
</svg>
