<svg xmlns="http://www.w3.org/2000/svg" width="174.126" height="173.945" viewBox="0 0 174.126 173.945">
  <g id="idea-1" transform="translate(-687.557 -483.784)">
    <path id="blob" d="M49.7-41.4C61.3-25.2,65.3-4.7,62.1,16.1,58.9,36.8,48.4,57.7,31.3,66.5c-17,8.8-40.7,5.4-62.9-4.1-22.2-9.4-42.9-25-44.4-42-1.4-17,16.4-35.3,32.3-52.6C-27.8-49.4-13.9-65.6,2.6-67.7,19.1-69.7,38.2-57.7,49.7-41.4Z" transform="translate(774.75 564.043) rotate(-73)" fill="#f5f8fa"/>
    <g id="idea_1_" data-name="idea (1)" transform="translate(749.855 520.894)">
      <path id="Path_495" data-name="Path 495" d="M61.908,194.18,37,207.982l24.912,13.8,24.913-13.8Zm0,0" transform="translate(-30.912 -162.242)" fill="#fc3e81"/>
      <path id="Path_496" data-name="Path 496" d="M86.817,269.177l-24.912,13.8-24.914-13.8,3.171-1.755,21.742,12.044,21.742-12.044Zm0,0" transform="translate(-30.908 -223.437)" fill="#f01054"/>
      <path id="Path_497" data-name="Path 497" d="M99.044,21.915a21.811,21.811,0,0,1-4.469,13.262,42.365,42.365,0,0,0-7.437,15.309,38.887,38.887,0,0,0-.787,3.947c-.053.347-.1.7-.141,1.043H68.049q-.062-.522-.138-1.043a39.945,39.945,0,0,0-.773-3.939A40.875,40.875,0,0,0,59.778,35.3,21.915,21.915,0,1,1,99.044,21.915Zm0,0" transform="translate(-46.132 0)" fill="#ffdf46"/>
      <path id="Path_498" data-name="Path 498" d="M203.537,306.949a38.707,38.707,0,0,0-.786,3.947l-1.884,1.043h-6.339Zm0,0" transform="translate(-162.533 -256.463)" fill="#f9b200"/>
      <path id="Path_499" data-name="Path 499" d="M127.715,307l8.994,4.982h-6.34l-1.881-1.043A40.125,40.125,0,0,0,127.715,307Zm0,0" transform="translate(-106.71 -256.506)" fill="#f9b200"/>
      <path id="Path_500" data-name="Path 500" d="M197.1,21.916a21.8,21.8,0,0,1-4.47,13.262,41.776,41.776,0,0,0-8.365,20.3h-5.213a41.77,41.77,0,0,1,8.365-20.3A21.914,21.914,0,0,0,172.574.153q.772-.088,1.554-.127A21.917,21.917,0,0,1,197.1,21.916Zm0,0" transform="translate(-144.19 0)" fill="#f9b200"/>
      <path id="Path_501" data-name="Path 501" d="M138.606,336.584v13.36a3.258,3.258,0,0,1-3.258,3.258H117.427a3.259,3.259,0,0,1-3.259-3.258v-13.36a3.26,3.26,0,0,1,3.259-3.259h17.921A3.259,3.259,0,0,1,138.606,336.584Zm0,0" transform="translate(-95.391 -278.5)" fill="#a7c7d3"/>
      <path id="Path_502" data-name="Path 502" d="M153.721,333.324l-8.515,4.718-8.515-4.718h6.34l2.175,1.2,2.175-1.2Zm0,0" transform="translate(-114.209 -278.5)" fill="#84a1c0"/>
      <path id="Path_503" data-name="Path 503" d="M137.776,368.74H115.619a1.275,1.275,0,1,1,0-2.549h22.157a1.275,1.275,0,0,1,0,2.549Zm0,0" transform="translate(-95.538 -305.961)"/>
      <path id="Path_504" data-name="Path 504" d="M137.776,408.362H115.619a1.275,1.275,0,0,1,0-2.549h22.157a1.275,1.275,0,0,1,0,2.549Zm0,0" transform="translate(-95.538 -339.066)"/>
      <path id="Path_505" data-name="Path 505" d="M201.186,56.86A6.151,6.151,0,0,1,195.369,65a5.8,5.8,0,0,1-.7-.041,3.72,3.72,0,0,1-3.663,3.083h-.029a2.551,2.551,0,0,1-2.517-2.559V41.164a1.952,1.952,0,0,1,.528-1.338,5.726,5.726,0,0,1,9.839,3.135,8.223,8.223,0,0,1,2.353,13.9Zm0,0" transform="translate(-157.468 -31.772)" fill="#fc3e81"/>
      <path id="Path_506" data-name="Path 506" d="M203.5,188.517a1.236,1.236,0,0,1-.2-.016,7.271,7.271,0,0,1-3.876-1.924,1.274,1.274,0,1,1,1.75-1.853,4.74,4.74,0,0,0,2.521,1.259,1.275,1.275,0,0,1-.2,2.534Zm0,0" transform="translate(-166.29 -154.051)" fill="#f01054"/>
      <path id="Path_507" data-name="Path 507" d="M194.232,74.048a1.275,1.275,0,0,1-1.8.08,4.326,4.326,0,0,0-3.55-1.1,1.306,1.306,0,0,1-.416-.008V70.513c.017-.005.035-.006.055-.01a6.864,6.864,0,0,1,5.633,1.746A1.273,1.273,0,0,1,194.232,74.048Zm0,0" transform="translate(-157.467 -58.848)" fill="#f01054"/>
      <path id="Path_508" data-name="Path 508" d="M109.263,41.165V65.487a2.551,2.551,0,0,1-2.517,2.559h-.031a3.72,3.72,0,0,1-3.663-3.083,5.781,5.781,0,0,1-.7.041,6.151,6.151,0,0,1-5.816-8.143,8.224,8.224,0,0,1,2.355-13.9,5.725,5.725,0,0,1,9.838-3.135,1.947,1.947,0,0,1,.53,1.338Zm0,0" transform="translate(-78.266 -31.773)" fill="#fd82ac"/>
      <path id="Path_509" data-name="Path 509" d="M144.226,188.518a1.275,1.275,0,0,1-.2-2.534,4.733,4.733,0,0,0,2.52-1.259,1.275,1.275,0,0,1,1.751,1.853,7.279,7.279,0,0,1-3.877,1.924,1.3,1.3,0,0,1-.2.015Zm0,0" transform="translate(-119.441 -154.052)" fill="#fd6096"/>
      <path id="Path_510" data-name="Path 510" d="M157.466,70.513v2.505a1.306,1.306,0,0,1-.416.008,4.326,4.326,0,0,0-3.55,1.1,1.275,1.275,0,0,1-1.723-1.879,6.866,6.866,0,0,1,5.635-1.746C157.43,70.506,157.448,70.508,157.466,70.513Zm0,0" transform="translate(-126.468 -58.848)" fill="#fd6096"/>
      <path id="Path_511" data-name="Path 511" d="M227.08,106.86a7.425,7.425,0,0,0-5.349-4.641A6.766,6.766,0,0,0,220.683,99a1.274,1.274,0,1,0-2.143,1.38,4.286,4.286,0,0,1,.659,2.328,4.209,4.209,0,0,1-.887,2.643,1.275,1.275,0,0,0,1.985,1.6,6.5,6.5,0,0,0,1.143-2.175,4.961,4.961,0,0,1,3.257,2.994,1.274,1.274,0,0,0,2.382-.906Zm0,0" transform="translate(-182.17 -82.225)" fill="#f01054"/>
      <path id="Path_512" data-name="Path 512" d="M111.328,102.705a4.277,4.277,0,0,1,.659-2.327A1.275,1.275,0,1,0,109.844,99a6.773,6.773,0,0,0-1.049,3.223,7.428,7.428,0,0,0-5.349,4.642,1.275,1.275,0,1,0,2.383.906,4.958,4.958,0,0,1,3.257-2.994,6.5,6.5,0,0,0,1.143,2.174,1.274,1.274,0,1,0,1.984-1.6,4.216,4.216,0,0,1-.886-2.644Zm0,0" transform="translate(-86.363 -82.226)" fill="#fd6096"/>
      <path id="Path_513" data-name="Path 513" d="M213.376,278.094v23.913a1.7,1.7,0,0,1-.875,1.485l-23.214,12.863s-.005,0-.007,0a1.676,1.676,0,0,1-.815.209V291.9Zm0,0" transform="translate(-157.467 -232.354)" fill="#e29c6d"/>
      <path id="Path_514" data-name="Path 514" d="M61.906,291.9v24.67a1.687,1.687,0,0,1-.8-.2l-.027-.013L37.869,303.491a1.7,1.7,0,0,1-.877-1.485V278.094Zm0,0" transform="translate(-30.909 -232.354)" fill="#edb48a"/>
      <path id="Path_515" data-name="Path 515" d="M218.591,290.391l-21.97,12.173a1.681,1.681,0,0,1-2.265-.62l-5.9-10.047,24.913-13.8,5.853,9.976a1.681,1.681,0,0,1-.635,2.321Zm0,0" transform="translate(-157.464 -232.354)" fill="#edb48a"/>
      <path id="Path_516" data-name="Path 516" d="M.866,290.391l21.97,12.173a1.682,1.682,0,0,0,2.265-.62L31,291.9l-24.912-13.8L.231,288.069a1.681,1.681,0,0,0,.635,2.321Zm0,0" transform="translate(0 -232.354)" fill="#e29c6d"/>
      <path id="Path_517" data-name="Path 517" d="M21.006,202.233a1.274,1.274,0,0,1-1.274-1.268l0-.317A1.274,1.274,0,0,1,21,199.367h.006a1.274,1.274,0,0,1,1.274,1.268l0,.317a1.275,1.275,0,0,1-1.268,1.281h-.006Zm0,0" transform="translate(-16.486 -166.576)" fill="#7884ea"/>
      <path id="Path_518" data-name="Path 518" d="M21.073,230.674a1.275,1.275,0,0,1-1.275-1.268v-.317a1.274,1.274,0,0,1,1.268-1.281h.006a1.275,1.275,0,0,1,1.275,1.268v.317a1.274,1.274,0,0,1-1.268,1.28Zm0,0" transform="translate(-16.541 -190.339)" fill="#7884ea"/>
      <path id="Path_519" data-name="Path 519" d="M34.3,217.066a1.274,1.274,0,0,1-.006-2.549h.324a1.274,1.274,0,0,1,.006,2.549H34.3Zm0,0" transform="translate(-27.596 -179.233)" fill="#7884ea"/>
      <path id="Path_520" data-name="Path 520" d="M5.857,217.132a1.274,1.274,0,0,1-.007-2.549h.324a1.274,1.274,0,0,1,.006,2.549H5.857Zm0,0" transform="translate(-3.829 -179.288)" fill="#7884ea"/>
      <path id="Path_521" data-name="Path 521" d="M362.772,151.682a1.274,1.274,0,0,1-1.274-1.268l0-.317a1.275,1.275,0,0,1,1.268-1.281h.006a1.275,1.275,0,0,1,1.275,1.268v.317a1.274,1.274,0,0,1-1.268,1.28Zm0,0" transform="translate(-302.039 -124.339)" fill="#9be058"/>
      <path id="Path_522" data-name="Path 522" d="M362.838,180.128a1.274,1.274,0,0,1-1.274-1.268l0-.317a1.274,1.274,0,0,1,1.268-1.281h.007a1.274,1.274,0,0,1,1.274,1.268l0,.317a1.275,1.275,0,0,1-1.268,1.281Zm0,0" transform="translate(-302.094 -148.107)" fill="#9be058"/>
      <path id="Path_523" data-name="Path 523" d="M376.067,166.516a1.274,1.274,0,0,1-.006-2.549l.317,0h.006a1.275,1.275,0,0,1,.006,2.549h-.324Zm0,0" transform="translate(-313.149 -136.997)" fill="#9be058"/>
      <path id="Path_524" data-name="Path 524" d="M347.623,166.581a1.274,1.274,0,0,1-.006-2.549h.323a1.274,1.274,0,0,1,.006,2.549h-.323Zm0,0" transform="translate(-289.383 -137.052)" fill="#9be058"/>
      <g id="Group_157" data-name="Group 157" transform="translate(2.934 2.483)">
        <path id="Path_525" data-name="Path 525" d="M34.264,17.96a1.274,1.274,0,0,1-1.274-1.268l0-.317a1.274,1.274,0,0,1,1.268-1.281h.007a1.274,1.274,0,0,1,1.274,1.268l0,.317a1.275,1.275,0,0,1-1.268,1.281Zm0,0" transform="translate(-30.497 -15.094)" fill="#fc3e81"/>
        <path id="Path_526" data-name="Path 526" d="M34.327,46.4a1.274,1.274,0,0,1-1.274-1.268l0-.317a1.275,1.275,0,0,1,1.268-1.281h.006A1.275,1.275,0,0,1,35.6,44.8v.317A1.274,1.274,0,0,1,34.334,46.4Zm0,0" transform="translate(-30.549 -38.857)" fill="#fc3e81"/>
        <path id="Path_527" data-name="Path 527" d="M47.556,32.793a1.274,1.274,0,0,1-.006-2.549l.317,0h.007a1.274,1.274,0,0,1,.006,2.549l-.317,0Zm0,0" transform="translate(-41.603 -27.751)" fill="#fc3e81"/>
        <path id="Path_528" data-name="Path 528" d="M19.114,32.855a1.274,1.274,0,0,1-.006-2.549l.317,0h.006a1.275,1.275,0,0,1,.007,2.549h-.324Zm0,0" transform="translate(-17.84 -27.803)" fill="#fc3e81"/>
        <path id="Path_529" data-name="Path 529" d="M333.42,203.971a1.275,1.275,0,0,1-1.275-1.268v-.317a1.274,1.274,0,0,1,2.549-.013l0,.317a1.275,1.275,0,0,1-1.268,1.281Zm0,0" transform="translate(-280.448 -170.511)" fill="#fc3e81"/>
        <path id="Path_530" data-name="Path 530" d="M333.483,232.413a1.274,1.274,0,0,1-1.274-1.268l0-.317a1.275,1.275,0,0,1,1.268-1.281h.006a1.275,1.275,0,0,1,1.275,1.268v.317a1.274,1.274,0,0,1-1.268,1.281Zm0,0" transform="translate(-280.501 -194.275)" fill="#fc3e81"/>
        <path id="Path_531" data-name="Path 531" d="M346.712,218.8a1.275,1.275,0,0,1-.006-2.549h.324a1.274,1.274,0,0,1,.006,2.549l-.317,0Zm0,0" transform="translate(-291.556 -183.168)" fill="#fc3e81"/>
        <path id="Path_532" data-name="Path 532" d="M318.27,218.867a1.274,1.274,0,0,1-.006-2.549l.317,0a1.274,1.274,0,1,1,.013,2.549l-.317,0Zm0,0" transform="translate(-267.792 -183.22)" fill="#fc3e81"/>
      </g>
      <path id="Path_533" data-name="Path 533" d="M341.131,72.063a1.275,1.275,0,0,1-.353-2.5l1.3-.376a1.274,1.274,0,1,1,.707,2.449l-1.3.376A1.254,1.254,0,0,1,341.131,72.063Zm0,0" transform="translate(-283.959 -57.766)" fill="#43a3f9"/>
      <path id="Path_534" data-name="Path 534" d="M332.238,51.074a1.274,1.274,0,0,1-.918-2.157l.939-.977a1.274,1.274,0,1,1,1.837,1.767l-.939.977A1.269,1.269,0,0,1,332.238,51.074Zm0,0" transform="translate(-276.529 -39.728)" fill="#43a3f9"/>
      <path id="Path_535" data-name="Path 535" d="M344.491,94.22a1.291,1.291,0,0,1-.306-.037l-1.316-.326a1.274,1.274,0,0,1,.612-2.474l1.315.326a1.274,1.274,0,0,1-.305,2.511Zm0,0" transform="translate(-285.666 -76.321)" fill="#43a3f9"/>
      <path id="Path_536" data-name="Path 536" d="M8.223,140.961a1.275,1.275,0,0,1-.066-2.547l1.353-.071a1.274,1.274,0,1,1,.133,2.546l-1.353.071-.067,0Zm0,0" transform="translate(-5.807 -115.587)" fill="#ffdf46"/>
      <path id="Path_537" data-name="Path 537" d="M12.848,117.9a1.266,1.266,0,0,1-.578-.139l-1.208-.615a1.275,1.275,0,0,1,1.158-2.271l1.207.615a1.275,1.275,0,0,1-.58,2.411Zm0,0" transform="translate(-8.662 -95.867)" fill="#ffdf46"/>
      <path id="Path_538" data-name="Path 538" d="M14.136,161.124a1.274,1.274,0,0,1-.7-2.343l1.136-.738a1.274,1.274,0,0,1,1.388,2.138l-1.137.738a1.267,1.267,0,0,1-.693.206Zm0,0" transform="translate(-10.746 -131.877)" fill="#ffdf46"/>
    </g>
  </g>
</svg>
