<svg xmlns="http://www.w3.org/2000/svg" width="139.24" height="139.512" viewBox="0 0 139.24 139.512">
  <g id="meet-1" transform="translate(-325 -501)">
    <path id="blob" d="M49.7-41.4C61.3-25.2,65.3-4.7,62.1,16.1,58.9,36.8,48.4,57.7,31.3,66.5c-17,8.8-40.7,5.4-62.9-4.1-22.2-9.4-42.9-25-44.4-42-1.4-17,16.4-35.3,32.3-52.6C-27.8-49.4-13.9-65.6,2.6-67.7,19.1-69.7,38.2-57.7,49.7-41.4Z" transform="translate(401.078 568.918)" fill="#f5f8fa"/>
    <g id="meeting_1_" data-name="meeting (1)" transform="translate(367.423 535.326)">
      <path id="Path_450" data-name="Path 450" d="M75.683,66.665H19.606A4.606,4.606,0,0,1,15,62.059V20.194a4.606,4.606,0,0,1,4.606-4.606H75.683a4.606,4.606,0,0,1,4.606,4.606V62.059A4.606,4.606,0,0,1,75.683,66.665Z" transform="translate(-12.969 -12.969)" fill="#cef"/>
      <path id="Path_451" data-name="Path 451" d="M284.09,15.588H256.044V66.665H284.09a4.606,4.606,0,0,0,4.606-4.606V20.194a4.606,4.606,0,0,0-4.606-4.606Z" transform="translate(-221.376 -12.969)" fill="#ff405c"/>
      <path id="Path_452" data-name="Path 452" d="M15,204.2v20.932a4.606,4.606,0,0,0,4.606,4.606H75.683a4.606,4.606,0,0,0,4.606-4.606V204.2Z" transform="translate(-12.969 -176.046)" fill="#fff"/>
      <path id="Path_453" data-name="Path 453" d="M256.044,204.2v25.538H284.09a4.606,4.606,0,0,0,4.606-4.606V204.2Z" transform="translate(-221.376 -176.046)" fill="#00215a"/>
      <path id="Path_454" data-name="Path 454" d="M173.041,406.883l2.208-14.065h18l1.982,14.063Z" transform="translate(-149.611 -339.122)" fill="#004db6"/>
      <path id="Path_455" data-name="Path 455" d="M256.044,406.888h10.947l-1.982-14.063h-8.965Z" transform="translate(-221.376 -339.127)" fill="#192b80"/>
      <g id="Group_155" data-name="Group 155" transform="translate(16.58 65.718)">
        <path id="Path_456" data-name="Path 456" d="M156.61,485.67H124.48a2.031,2.031,0,0,1,0-4.062h32.13a2.031,2.031,0,0,1,0,4.062Z" transform="translate(-122.449 -481.608)" fill="#0089ff"/>
      </g>
      <path id="Path_457" data-name="Path 457" d="M272.116,481.608H256.044v4.062h16.072a2.031,2.031,0,1,0,0-4.062Z" transform="translate(-221.376 -415.89)" fill="#295fcc"/>
      <circle id="Ellipse_156" data-name="Ellipse 156" cx="4.689" cy="4.689" r="4.689" transform="translate(45.831 34.632)" fill="#ffa64d"/>
      <path id="Path_458" data-name="Path 458" d="M373.119,252.019V261.4a4.689,4.689,0,0,0,0-9.378Z" transform="translate(-322.599 -217.387)" fill="#f93"/>
      <path id="Path_459" data-name="Path 459" d="M326.32,326.637h-6.153a4.734,4.734,0,0,0-4.7,4.733v1.063a1.24,1.24,0,0,0,1.24,1.24h13.1a1.24,1.24,0,0,0,1.24-1.24v-1.063A4.734,4.734,0,0,0,326.32,326.637Z" transform="translate(-272.756 -281.902)" fill="#7affe4"/>
      <path id="Path_460" data-name="Path 460" d="M376.162,326.637h-3.044v7.037h6.538a1.24,1.24,0,0,0,1.24-1.24v-1.063A4.734,4.734,0,0,0,376.162,326.637Z" transform="translate(-322.598 -281.902)" fill="#00ecce"/>
      <circle id="Ellipse_157" data-name="Ellipse 157" cx="4.689" cy="4.689" r="4.689" transform="translate(14.226 34.632)" fill="#fc9"/>
      <path id="Path_461" data-name="Path 461" d="M139.7,252.019V261.4a4.689,4.689,0,0,0,0-9.378Z" transform="translate(-120.78 -217.387)" fill="#ffb366"/>
      <path id="Path_462" data-name="Path 462" d="M92.9,326.637H86.743a4.734,4.734,0,0,0-4.7,4.733v1.063a1.24,1.24,0,0,0,1.24,1.24h13.1a1.24,1.24,0,0,0,1.24-1.24v-1.063A4.734,4.734,0,0,0,92.9,326.637Z" transform="translate(-70.938 -281.902)" fill="#ff9100"/>
      <path id="Path_463" data-name="Path 463" d="M142.738,326.637h-3.044v7.037h6.538a1.24,1.24,0,0,0,1.24-1.24v-1.063A4.734,4.734,0,0,0,142.738,326.637Z" transform="translate(-120.779 -281.902)" fill="#ff641a"/>
      <circle id="Ellipse_158" data-name="Ellipse 158" cx="4.689" cy="4.689" r="4.689" transform="translate(45.831 11.015)" fill="#ffa64d"/>
      <path id="Path_464" data-name="Path 464" d="M373.119,77.6v9.378a4.689,4.689,0,0,0,0-9.378Z" transform="translate(-322.599 -66.584)" fill="#f93"/>
      <path id="Path_465" data-name="Path 465" d="M326.32,152.217h-6.153a4.734,4.734,0,0,0-4.7,4.733v1.063a1.24,1.24,0,0,0,1.24,1.24h13.1a1.24,1.24,0,0,0,1.24-1.24v-1.063A4.734,4.734,0,0,0,326.32,152.217Z" transform="translate(-272.756 -131.098)" fill="#ffda2d"/>
      <path id="Path_466" data-name="Path 466" d="M376.162,152.217h-3.044v7.037h6.538a1.24,1.24,0,0,0,1.24-1.24v-1.063A4.734,4.734,0,0,0,376.162,152.217Z" transform="translate(-322.598 -131.098)" fill="#fdbf00"/>
      <circle id="Ellipse_159" data-name="Ellipse 159" cx="4.689" cy="4.689" r="4.689" transform="translate(14.226 11.015)" fill="#fc9"/>
      <path id="Path_467" data-name="Path 467" d="M139.7,77.6v9.378a4.689,4.689,0,0,0,0-9.378Z" transform="translate(-120.78 -66.584)" fill="#ffb366"/>
      <path id="Path_468" data-name="Path 468" d="M92.9,152.217H86.743a4.734,4.734,0,0,0-4.7,4.733v1.063a1.24,1.24,0,0,0,1.24,1.24h13.1a1.24,1.24,0,0,0,1.24-1.24v-1.063A4.734,4.734,0,0,0,92.9,152.217Z" transform="translate(-70.938 -131.098)" fill="#ff405c"/>
      <path id="Path_469" data-name="Path 469" d="M142.738,152.217h-3.044v7.037h6.538a1.24,1.24,0,0,0,1.24-1.24v-1.063A4.734,4.734,0,0,0,142.738,152.217Z" transform="translate(-120.779 -131.098)" fill="#c1126b"/>
      <path id="Path_470" data-name="Path 470" d="M63.251,55.727H6.1a6.1,6.1,0,0,1-6.1-6.1V6.688A6.1,6.1,0,0,1,6.1.588h57.15a6.1,6.1,0,0,1,6.1,6.1V49.627a6.1,6.1,0,0,1-6.1,6.1ZM6.1,4.65A2.039,2.039,0,0,0,4.062,6.688V49.626A2.039,2.039,0,0,0,6.1,51.665h57.15a2.039,2.039,0,0,0,2.039-2.039V6.688A2.039,2.039,0,0,0,63.251,4.65H6.1Z" transform="translate(0 0)" fill="#0089ff"/>
      <path id="Path_471" data-name="Path 471" d="M285.138.588H256.044V4.65h29.094a1.527,1.527,0,0,1,1.527,1.527V49.5a2.166,2.166,0,0,1-2.166,2.166H256.044v4.062h29.094a5.589,5.589,0,0,0,5.589-5.589V6.177A5.589,5.589,0,0,0,285.138.588Z" transform="translate(-221.376)" fill="#295fcc"/>
    </g>
  </g>
</svg>
